<svg width="14" height="14" viewBox="0 0 14 14" fill="none" xmlns="http://www.w3.org/2000/svg">
<path fill-rule="evenodd" clip-rule="evenodd" d="M12.5587 6.69174C12.6406 6.77377 12.6866 6.88497 12.6865 7.00089C12.6865 7.11681 12.6405 7.22799 12.5586 7.31L8.48274 11.3923C8.44241 11.4341 8.39415 11.4675 8.34078 11.4904C8.28742 11.5133 8.23002 11.5254 8.17194 11.526C8.11385 11.5265 8.05625 11.5154 8.00248 11.4935C7.94871 11.4715 7.89986 11.439 7.85877 11.398C7.81769 11.3569 7.78519 11.3081 7.76317 11.2543C7.74116 11.2006 7.73007 11.143 7.73056 11.0849C7.73104 11.0268 7.74309 10.9694 7.766 10.916C7.78891 10.8626 7.82221 10.8143 7.86398 10.774L11.1937 7.43872L1.75063 7.44388C1.63461 7.44401 1.52329 7.39806 1.44115 7.31612C1.35902 7.23418 1.31279 7.12297 1.31266 7.00695C1.31252 6.89093 1.35847 6.77961 1.44041 6.69747C1.52235 6.61534 1.63356 6.56912 1.74958 6.56898L11.195 6.56441L7.86441 3.22651C7.82265 3.18613 7.78936 3.13784 7.76646 3.08446C7.74357 3.03107 7.73154 2.97366 7.73107 2.91558C7.7306 2.8575 7.7417 2.7999 7.76373 2.74615C7.78576 2.69241 7.81827 2.64358 7.85937 2.60253C7.90046 2.56149 7.94932 2.52903 8.0031 2.50707C8.05687 2.48511 8.11448 2.47407 8.17257 2.47461C8.23065 2.47515 8.28804 2.48726 8.3414 2.51021C8.39476 2.53317 8.44301 2.56653 8.48334 2.60833L12.5587 6.69174Z" fill="white"/>
</svg>
