<svg width="44" height="44" viewBox="0 0 44 44" fill="none" xmlns="http://www.w3.org/2000/svg">
<path d="M22 31.625C20.0964 31.625 18.2355 31.0605 16.6526 30.0029C15.0698 28.9453 13.8362 27.4421 13.1077 25.6833C12.3792 23.9246 12.1886 21.9893 12.5599 20.1223C12.9313 18.2552 13.848 16.5402 15.1941 15.1941C16.5402 13.848 18.2552 12.9313 20.1223 12.5599C21.9893 12.1886 23.9246 12.3792 25.6833 13.1077C27.4421 13.8362 28.9453 15.0698 30.0029 16.6526C31.0605 18.2355 31.625 20.0964 31.625 22C31.6214 24.5516 30.6061 26.9976 28.8019 28.8019C26.9976 30.6061 24.5516 31.6214 22 31.625ZM22 15.125C20.6403 15.125 19.311 15.5282 18.1805 16.2837C17.0499 17.0391 16.1687 18.1128 15.6483 19.3691C15.128 20.6253 14.9918 22.0076 15.2571 23.3413C15.5224 24.6749 16.1772 25.8999 17.1386 26.8614C18.1001 27.8228 19.3251 28.4776 20.6588 28.7429C21.9924 29.0082 23.3747 28.872 24.631 28.3517C25.8872 27.8313 26.9609 26.9501 27.7164 25.8195C28.4718 24.689 28.875 23.3598 28.875 22C28.8728 20.1773 28.1478 18.4299 26.859 17.1411C25.5701 15.8522 23.8227 15.1272 22 15.125Z" fill="white"/>
<path d="M41.25 8.81925L39.3058 6.875L34.6995 11.4813C34.0423 10.6878 33.3122 9.95774 32.5187 9.3005L37.125 4.69425L35.1808 2.75L30.217 7.71375C27.0765 5.89962 23.4251 5.17264 19.8292 5.64562C16.2334 6.1186 12.8942 7.76508 10.3296 10.3296C7.76508 12.8942 6.1186 16.2334 5.64562 19.8292C5.17264 23.4251 5.89962 27.0765 7.71375 30.217L2.75 35.1808L4.69425 37.125L9.3005 32.5187C9.95774 33.3122 10.6878 34.0423 11.4813 34.6995L6.875 39.3058L8.81925 41.25L13.783 36.2862C16.9235 38.1004 20.5749 38.8274 24.1708 38.3544C27.7666 37.8814 31.1058 36.2349 33.6704 33.6704C36.2349 31.1058 37.8814 27.7666 38.3544 24.1708C38.8274 20.5749 38.1004 16.9235 36.2862 13.783L41.25 8.81925ZM22 35.75C19.2805 35.75 16.6221 34.9436 14.3609 33.4327C12.0997 31.9218 10.3374 29.7744 9.29666 27.2619C8.25595 24.7494 7.98366 21.9847 8.5142 19.3175C9.04475 16.6503 10.3543 14.2003 12.2773 12.2773C14.2003 10.3543 16.6503 9.04475 19.3175 8.5142C21.9847 7.98366 24.7494 8.25595 27.2619 9.29666C29.7744 10.3374 31.9218 12.0997 33.4327 14.3609C34.9436 16.6221 35.75 19.2805 35.75 22C35.7464 25.6456 34.2965 29.1409 31.7187 31.7187C29.1409 34.2965 25.6456 35.7464 22 35.75Z" fill="white"/>
</svg>
