<svg width="17" height="19" viewBox="0 0 17 19" fill="none" xmlns="http://www.w3.org/2000/svg">
<path d="M4.9036 8.45019C2.9692 8.45019 1.40103 6.87381 1.40103 4.92928V2.11255C1.40103 1.7237 1.71472 1.40837 2.10154 1.40837H2.80206C3.18888 1.40837 3.50257 1.09303 3.50257 0.704183C3.50257 0.315333 3.18888 0 2.80206 0H2.10154C0.94093 0 0 0.945858 0 2.11255V4.92928C0.00182134 6.54411 0.792701 8.05515 2.11555 8.97129C3.38082 10.0926 4.13499 11.6852 4.20308 13.3795C4.20308 16.1018 6.39849 18.3088 9.10668 18.3088C11.8149 18.3088 14.0103 16.1018 14.0103 13.3795V12.5767C15.5087 12.1879 16.4097 10.6515 16.0229 9.14522C15.6359 7.63898 14.1076 6.73326 12.6092 7.12211C11.1109 7.5111 10.2098 9.04734 10.5967 10.5536C10.8515 11.5458 11.6222 12.3205 12.6092 12.5767V13.3795C12.6092 15.324 11.0411 16.9004 9.10668 16.9004C7.17228 16.9004 5.60411 15.324 5.60411 13.3795C5.6757 11.6831 6.4352 10.0901 7.70565 8.97129C9.02318 8.05191 9.80859 6.54158 9.80719 4.92928V2.11255C9.80719 0.945858 8.86626 0 7.70565 0H7.00514C6.61831 0 6.30462 0.315333 6.30462 0.704183C6.30462 1.09303 6.61831 1.40837 7.00514 1.40837H7.70565C8.09248 1.40837 8.40617 1.7237 8.40617 2.11255V4.92928C8.40617 6.87381 6.838 8.45019 4.9036 8.45019ZM13.3098 11.2669C12.536 11.2669 11.9087 10.6364 11.9087 9.85856C11.9087 9.08072 12.536 8.45019 13.3098 8.45019C14.0836 8.45019 14.7108 9.08072 14.7108 9.85856C14.7108 10.6364 14.0836 11.2669 13.3098 11.2669Z" fill="#008080"/>
</svg>
