<svg width="19" height="18" viewBox="0 0 19 18" fill="none" xmlns="http://www.w3.org/2000/svg">
<path d="M16.3895 9.09975C16.4903 5.09617 13.2792 1.76619 9.22188 1.66675C5.16457 1.56731 1.7899 4.73588 1.68912 8.73946C1.60076 12.2498 4.05565 15.2347 7.39036 15.9914L7.5145 11.0594L6.04447 11.0234L6.09924 8.84755L7.56927 8.88357L7.61491 7.07036C7.65015 5.67056 8.83279 4.56014 10.2514 4.59491L12.0889 4.63995L12.0342 6.81581L10.5641 6.77978C10.1599 6.76987 9.82088 7.08814 9.81084 7.48705L9.77433 8.93762L11.9794 8.99166L11.9246 11.1675L9.71956 11.1135L9.59268 16.1542C13.3137 15.8825 16.2947 12.864 16.3895 9.09975Z" fill="white"/>
</svg>
