<svg width="18" height="18" viewBox="0 0 18 18" fill="none" xmlns="http://www.w3.org/2000/svg">
<path d="M14.7311 5.67719C14.6598 5.91493 14.3545 6.50981 13.8468 7.0707C13.362 13.3582 7.20316 15.2538 3.07111 13.0406C2.51726 12.265 5.14963 12.6416 6.15102 11.2074C2.54951 9.25404 2.96506 4.27844 3.69254 4.49948C5.35334 6.85527 8.11883 7.13351 8.57383 6.9342C8.58716 6.40474 8.39133 5.24603 9.66319 4.31198C10.3942 3.81462 11.9072 3.39449 13.2265 4.90007C13.4548 5.05806 13.7868 5.13152 14.29 5.03499C14.5912 4.88997 14.9803 5.00111 14.7639 5.52559L14.7311 5.67719Z" stroke="#09243C" stroke-width="1.5143" stroke-linecap="round" stroke-linejoin="round"/>
</svg>
