<svg width="18" height="18" viewBox="0 0 18 18" fill="none" xmlns="http://www.w3.org/2000/svg">
<path d="M6.05925 1.58923L12.1521 1.73856C14.4731 1.79545 16.3115 3.72741 16.2531 6.04832L16.0998 12.1407C16.0717 13.2564 15.6015 14.3155 14.7927 15.0851C13.9839 15.8546 12.9027 16.2716 11.7869 16.2443L5.69412 16.0949C3.37305 16.0381 1.53465 14.1061 1.59307 11.7852L1.74642 5.69278C1.7745 4.5771 2.24467 3.51799 3.05348 2.74842C3.86229 1.97886 4.9435 1.56188 6.05925 1.58923ZM5.87767 3.03625C5.18513 3.01927 4.51404 3.27808 4.01202 3.75574C3.51 4.23341 3.21817 4.89079 3.20074 5.58328L3.04008 11.9658C3.00375 13.4091 4.14215 14.6054 5.58557 14.6408L11.9685 14.7973C12.661 14.8142 13.3321 14.5554 13.8342 14.0778C14.3362 13.6001 14.628 12.9427 14.6454 12.2502L14.8061 5.86771C14.8424 4.42439 13.704 3.22806 12.2606 3.19269L5.87767 3.03625ZM12.8498 4.29573C13.0902 4.30162 13.3184 4.40279 13.4842 4.57698C13.6499 4.75117 13.7397 4.98411 13.7336 5.22455C13.7276 5.465 13.6262 5.69326 13.4519 5.85911C13.2776 6.02497 13.0446 6.11483 12.8041 6.10894C12.5637 6.10305 12.3354 6.00188 12.1697 5.82769C12.0039 5.6535 11.9142 5.42056 11.9203 5.18011C11.9263 4.93966 12.0277 4.71141 12.202 4.54555C12.3763 4.3797 12.6093 4.28983 12.8498 4.29573ZM9.01437 5.29032C9.97622 5.3139 10.8891 5.71857 11.5521 6.41533C12.2151 7.11209 12.574 8.04385 12.5498 9.00564C12.5256 9.96742 12.1202 10.8805 11.423 11.5439C10.7257 12.2073 9.79366 12.5668 8.83181 12.5432C7.86995 12.5196 6.95711 12.1149 6.2941 11.4182C5.63108 10.7214 5.27221 9.78965 5.29642 8.82786C5.32063 7.86608 5.72594 6.95304 6.42319 6.28963C7.12044 5.62621 8.05252 5.26675 9.01437 5.29032ZM8.97786 6.74089C8.40075 6.72675 7.8415 6.94243 7.42315 7.34048C7.0048 7.73853 6.76161 8.28635 6.74709 8.86342C6.73256 9.44049 6.94789 9.99955 7.34569 10.4176C7.7435 10.8357 8.29121 11.0785 8.86832 11.0926C9.44543 11.1068 10.0047 10.8911 10.423 10.493C10.8414 10.095 11.0846 9.54715 11.0991 8.97008C11.1136 8.39301 10.8983 7.83395 10.5005 7.4159C10.1027 6.99784 9.55497 6.75504 8.97786 6.74089Z" fill="#09243C"/>
</svg>
