<svg width="33" height="39" viewBox="0 0 33 39" fill="none" xmlns="http://www.w3.org/2000/svg">
<path d="M6.875 12.3739C6.875 9.82123 7.88906 7.37307 9.6941 5.56803C11.4991 3.763 13.9473 2.74894 16.5 2.74894C19.0527 2.74894 21.5009 3.763 23.3059 5.56803C25.1109 7.37307 26.125 9.82123 26.125 12.3739C26.125 12.7386 26.2699 13.0883 26.5277 13.3462C26.7856 13.6041 27.1353 13.7489 27.5 13.7489C27.8647 13.7489 28.2144 13.6041 28.4723 13.3462C28.7301 13.0883 28.875 12.7386 28.875 12.3739C28.8748 10.2635 28.3349 8.18816 27.3066 6.34519C26.2782 4.50223 24.7957 2.95287 22.9998 1.84439C21.2039 0.735917 19.1543 0.105151 17.0459 0.0120491C14.9375 -0.0810524 12.8404 0.366605 10.9537 1.31247C9.06712 2.25834 7.45375 3.67098 6.26698 5.41613C5.0802 7.16128 4.35946 9.18095 4.17326 11.2832C3.98706 13.3854 4.34158 15.5003 5.20313 17.4269C6.06468 19.3535 7.40463 21.0277 9.09562 22.2904C10.5457 23.3736 12.2157 24.1255 13.9879 24.4932C14.2341 25.0454 14.6553 25.5011 15.1866 25.7897C15.7178 26.0784 16.3293 26.1839 16.9266 26.0901C17.5238 25.9962 18.0735 25.7081 18.4905 25.2704C18.9076 24.8327 19.1688 24.2698 19.2337 23.6687C19.2986 23.0676 19.1636 22.4619 18.8496 21.9452C18.5357 21.4286 18.0602 21.0298 17.4967 20.8106C16.9333 20.5913 16.3133 20.5639 15.7327 20.7325C15.1521 20.9011 14.6433 21.2563 14.2849 21.7432C12.1751 21.2442 10.2955 20.0476 8.95064 18.3471C7.60578 16.6467 6.87441 14.5419 6.875 12.3739ZM8.25 12.3739C8.25054 10.8562 8.66975 9.36803 9.46149 8.07316C10.2532 6.7783 11.3868 5.72694 12.7375 5.03477C14.0883 4.3426 15.6037 4.03645 17.1172 4.15C18.6307 4.26355 20.0835 4.7924 21.3159 5.67836C22.5482 6.56432 23.5122 7.77306 24.1019 9.17156C24.6915 10.5701 24.884 12.1041 24.6581 13.605C24.4322 15.1058 23.7966 16.5152 22.8213 17.6781C21.8461 18.8411 20.5689 19.7124 19.1304 20.1963C18.3906 19.584 17.4603 19.2489 16.5 19.2489C15.5004 19.2489 14.5846 19.6051 13.8696 20.1963C12.2317 19.6453 10.8081 18.5939 9.79977 17.1903C8.79148 15.7868 8.24938 14.1021 8.25 12.3739ZM16.5 6.87394C15.0413 6.87394 13.6424 7.4534 12.6109 8.48485C11.5795 9.5163 11 10.9152 11 12.3739C11 13.8326 11.5795 15.2316 12.6109 16.263C13.6424 17.2945 15.0413 17.8739 16.5 17.8739C17.9587 17.8739 19.3576 17.2945 20.3891 16.263C21.4205 15.2316 22 13.8326 22 12.3739C22 10.9152 21.4205 9.5163 20.3891 8.48485C19.3576 7.4534 17.9587 6.87394 16.5 6.87394ZM4.8125 21.9989H6.68113C7.78644 23.1282 9.07815 24.0585 10.4995 24.7489H4.8125C4.26549 24.7489 3.74089 24.9662 3.35409 25.353C2.9673 25.7398 2.75 26.2644 2.75 26.8114V27.4989C2.75 29.5243 4.0425 31.5538 6.54362 33.1447C9.02825 34.7259 12.5441 35.7489 16.4986 35.7489C20.4559 35.7489 23.9717 34.7259 26.4564 33.1447C28.9589 31.5552 30.25 29.5229 30.25 27.4989V26.8114C30.25 26.2644 30.0327 25.7398 29.6459 25.353C29.2591 24.9662 28.7345 24.7489 28.1875 24.7489H20.3913C20.7058 23.8593 20.7058 22.8886 20.3913 21.9989H28.1875C29.4639 21.9989 30.6879 22.506 31.5905 23.4085C32.493 24.311 33 25.5351 33 26.8114V27.4989C33 30.7893 30.9059 33.5723 27.9331 35.4643C24.9439 37.3673 20.8972 38.4989 16.5 38.4989C12.1027 38.4989 8.0575 37.3673 5.06687 35.4643C2.09413 33.5723 0 30.7893 0 27.4989V26.8114C0 25.5351 0.50703 24.311 1.40955 23.4085C2.31207 22.506 3.53615 21.9989 4.8125 21.9989Z" fill="white"/>
</svg>
