<svg width="33" height="32" viewBox="0 0 33 32" fill="none" xmlns="http://www.w3.org/2000/svg">
<path fill-rule="evenodd" clip-rule="evenodd" d="M32.5 6.53626V26.1451H27.622L27.625 31.0473L19.5 26.1451H13V6.53626H32.5ZM19.5 0V4.90221H11.375V20.5893L4.875 24.5111L4.87805 19.6089H0V0H19.5ZM23.7046 11.4385H21.8055L18.2 21.2429H19.9133L20.911 18.4338H24.5715L25.5762 21.2429H27.3926L23.7046 11.4385ZM22.7413 13.0783C22.8885 13.5749 23.0459 14.0684 23.2132 14.5586L23.2848 14.7666L24.1037 17.0914H21.372L22.1908 14.7666C22.4202 14.1254 22.6036 13.5627 22.7413 13.0783ZM8.91447 2.64559H7.2895V3.46257H3.22687V5.09669L9.29259 5.09677C9.19509 6.48838 8.84401 7.7419 8.23974 8.86489C7.58367 7.95744 7.13167 6.94322 6.88106 5.81586L6.86507 5.74218L5.27627 6.08533L5.39548 6.58413C5.7573 7.94978 6.38145 9.18031 7.26512 10.2688C6.30673 11.3087 4.93335 12.0381 3.1197 12.4538L3.05061 12.4695L3.40313 14.0646L3.88819 13.9473C5.78114 13.4527 7.29186 12.6178 8.401 11.4399C9.17825 12.1141 10.1415 12.7513 11.2905 13.3551L11.3749 13.3991V11.5384C10.5887 11.083 9.92573 10.6147 9.3859 10.1356C10.2819 8.67132 10.7916 7.01583 10.9157 5.18034L10.921 5.09685L11.3748 5.09669V3.46257H8.91432L8.91447 2.64559Z" fill="white"/>
</svg>
