<svg width="37" height="37" viewBox="0 0 37 37" fill="none" xmlns="http://www.w3.org/2000/svg">
<path d="M12.8333 23.6812V24.75C12.8333 26.938 13.7025 29.0365 15.2497 30.5836C16.7969 32.1308 18.8953 33 21.0833 33C23.2714 33 25.3698 32.1308 26.917 30.5836C28.4641 29.0365 29.3333 26.938 29.3333 24.75V21.6883C28.1096 21.2558 27.0782 20.4046 26.4213 19.2852C25.7645 18.1657 25.5246 16.8501 25.744 15.5709C25.9634 14.2917 26.628 13.1312 27.6203 12.2946C28.6126 11.458 29.8688 10.9991 31.1667 10.9991C32.4646 10.9991 33.7207 11.458 34.713 12.2946C35.7053 13.1312 36.3699 14.2917 36.5893 15.5709C36.8087 16.8501 36.5688 18.1657 35.912 19.2852C35.2552 20.4046 34.2237 21.2558 33 21.6883V24.75C33 27.9105 31.7445 30.9415 29.5097 33.1764C27.2749 35.4112 24.2438 36.6667 21.0833 36.6667C17.9228 36.6667 14.8918 35.4112 12.657 33.1764C10.4222 30.9415 9.16667 27.9105 9.16667 24.75V23.6812C6.60322 23.2479 4.27609 21.9206 2.59807 19.9348C0.920046 17.9491 -0.000398597 15.4331 1.29489e-07 12.8333V3.66667C1.29489e-07 2.69421 0.386309 1.76158 1.07394 1.07394C1.76158 0.386308 2.69421 0 3.66667 0L5.5 0C5.98623 0 6.45255 0.193154 6.79636 0.536971C7.14018 0.880788 7.33333 1.3471 7.33333 1.83333C7.33333 2.31956 7.14018 2.78588 6.79636 3.1297C6.45255 3.47351 5.98623 3.66667 5.5 3.66667H3.66667V12.8333C3.66667 14.7783 4.43928 16.6435 5.81455 18.0188C7.18982 19.3941 9.05508 20.1667 11 20.1667C12.9449 20.1667 14.8102 19.3941 16.1854 18.0188C17.5607 16.6435 18.3333 14.7783 18.3333 12.8333V3.66667H16.5C16.0138 3.66667 15.5475 3.47351 15.2036 3.1297C14.8598 2.78588 14.6667 2.31956 14.6667 1.83333C14.6667 1.3471 14.8598 0.880788 15.2036 0.536971C15.5475 0.193154 16.0138 0 16.5 0L18.3333 0C19.3058 0 20.2384 0.386308 20.9261 1.07394C21.6137 1.76158 22 2.69421 22 3.66667V12.8333C22.0004 15.4331 21.08 17.9491 19.4019 19.9348C17.7239 21.9206 15.3968 23.2479 12.8333 23.6812ZM31.1667 18.3333C31.6529 18.3333 32.1192 18.1402 32.463 17.7964C32.8068 17.4525 33 16.9862 33 16.5C33 16.0138 32.8068 15.5475 32.463 15.2036C32.1192 14.8598 31.6529 14.6667 31.1667 14.6667C30.6804 14.6667 30.2141 14.8598 29.8703 15.2036C29.5265 15.5475 29.3333 16.0138 29.3333 16.5C29.3333 16.9862 29.5265 17.4525 29.8703 17.7964C30.2141 18.1402 30.6804 18.3333 31.1667 18.3333Z" fill="white"/>
</svg>
