<svg width="27" height="34" viewBox="0 0 27 34" fill="none" xmlns="http://www.w3.org/2000/svg">
<path d="M14.5957 3.90747C14.7491 4.2131 14.8814 4.5312 14.9923 4.86179C17.2531 3.4827 19.7521 3.30119 21.9264 4.25925C25.4032 5.79365 27.5676 10.0263 26.6143 15.494C26.5675 15.7634 26.4695 16.0176 26.3273 16.2387C26.1851 16.4598 26.0022 16.6423 25.7915 16.7732C25.5809 16.9041 25.3477 16.9802 25.1085 16.9962C24.8693 17.0122 24.6299 16.9676 24.4075 16.8656L16.6965 13.329C17.733 17.5748 17.8391 21.8954 17.6644 25.2954C17.5375 27.6873 17.2505 30.0645 16.8058 32.406C16.715 32.8113 16.5105 33.1711 16.2238 33.4301C15.9372 33.689 15.5842 33.8329 15.2192 33.8394H11.1385C10.8604 33.8394 10.587 33.7579 10.3441 33.6028C10.1012 33.4477 9.89692 33.224 9.75058 32.953C9.60425 32.6819 9.52073 32.3726 9.50796 32.0542C9.49518 31.7358 9.55356 31.4189 9.67757 31.1336C10.4186 29.4308 10.9083 27.5409 11.2838 25.6959C11.904 22.6477 12.2566 18.7724 11.46 14.8803L2.61786 21.3921C2.38745 21.5614 2.1236 21.6616 1.85057 21.6834C1.57755 21.7053 1.30411 21.6481 1.05542 21.5171C0.806724 21.3861 0.590755 21.1855 0.427373 20.9338C0.263992 20.6821 0.158445 20.3873 0.120439 20.0766C-0.493307 15.0374 1.28917 10.5503 4.31546 8.19067C4.45475 8.08214 4.59621 7.97798 4.73986 7.87818L1.61236 6.59827C1.35303 6.49219 1.12132 6.31264 0.93879 6.07631C0.756262 5.83998 0.628851 5.55456 0.568413 5.24661C0.507974 4.93866 0.516473 4.61819 0.593119 4.31502C0.669764 4.01184 0.812066 3.73582 1.00678 3.51264C3.86821 0.232407 7.77267 -0.684487 10.8381 0.486891C12.3823 1.07819 13.7551 2.21963 14.5957 3.90747Z" fill="white"/>
</svg>
