<svg width="39" height="44" viewBox="0 0 39 44" fill="none" xmlns="http://www.w3.org/2000/svg">
<path d="M0 5.5C0 2.46641 2.49844 0 5.57143 0H33.4286C36.5016 0 39 2.46641 39 5.5V38.5C39 41.5336 36.5016 44 33.4286 44H5.57143C2.49844 44 0 41.5336 0 38.5V5.5ZM15.9308 23.9594C13.502 22.825 11.7174 20.5734 11.256 17.875H14.6598C14.7991 20.4875 15.3301 22.4984 15.9308 23.9594ZM19.5261 24.75H19.4739C19.265 24.4492 18.9777 23.9852 18.6817 23.332C18.1594 22.1633 17.6022 20.3844 17.4455 17.875H21.5458C21.3891 20.3844 20.8406 22.1633 20.3096 23.332C20.0136 23.9852 19.7263 24.4492 19.5174 24.75H19.5261ZM23.0692 23.9594C23.6612 22.4898 24.1922 20.4875 24.3402 17.875H27.744C27.2826 20.5734 25.498 22.825 23.0692 23.9594ZM24.3402 15.125C24.2009 12.5125 23.6699 10.5016 23.0692 9.04062C25.498 10.175 27.2826 12.4266 27.744 15.125H24.3402ZM19.4739 8.25H19.5261C19.735 8.55078 20.0223 9.01484 20.3183 9.66797C20.8406 10.8367 21.3978 12.6156 21.5545 15.125H17.4542C17.6109 12.6156 18.1594 10.8367 18.6904 9.66797C18.9864 9.01484 19.2737 8.55078 19.4826 8.25H19.4739ZM15.9308 9.04062C15.3388 10.5102 14.8078 12.5125 14.6598 15.125H11.256C11.7174 12.4266 13.502 10.175 15.9308 9.04062ZM30.6429 16.5C30.6429 13.5826 29.4689 10.7847 27.3792 8.72183C25.2895 6.65893 22.4553 5.5 19.5 5.5C16.5447 5.5 13.7105 6.65893 11.6208 8.72183C9.53112 10.7847 8.35714 13.5826 8.35714 16.5C8.35714 19.4174 9.53112 22.2153 11.6208 24.2782C13.7105 26.3411 16.5447 27.5 19.5 27.5C22.4553 27.5 25.2895 26.3411 27.3792 24.2782C29.4689 22.2153 30.6429 19.4174 30.6429 16.5ZM9.75 33C8.98393 33 8.35714 33.6187 8.35714 34.375C8.35714 35.1313 8.98393 35.75 9.75 35.75H29.25C30.0161 35.75 30.6429 35.1313 30.6429 34.375C30.6429 33.6187 30.0161 33 29.25 33H9.75Z" fill="white"/>
</svg>
