<svg width="41" height="41" viewBox="0 0 41 41" fill="none" xmlns="http://www.w3.org/2000/svg">
<path d="M11.055 7.24167L4.58333 13.75C-1.52167 19.8183 -1.52167 29.6817 4.58333 35.75C10.6883 41.8183 20.515 41.855 26.5833 35.75L37.5833 24.75C39.4167 22.9717 39.4167 20.0567 37.5833 18.26C37.4 18.04 37.1617 17.8383 36.905 17.6733L37.5833 16.9583C39.4167 15.18 39.4167 12.265 37.5833 10.4683C37.3267 10.175 36.9783 9.91833 36.6667 9.71667C37.3633 8.03 37.0517 6.01333 35.6767 4.63833C34.0817 3.04333 31.6067 2.87833 29.81 4.125C29.4369 3.55039 28.9406 3.06606 28.3571 2.70716C27.7735 2.34827 27.1174 2.12381 26.4363 2.05008C25.7552 1.97635 25.0662 2.0552 24.4193 2.28092C23.7725 2.50663 23.184 2.87353 22.6967 3.355L18.095 7.95667C17.93 7.7 17.7283 7.46167 17.5083 7.24167C16.6432 6.40386 15.486 5.93541 14.2817 5.93541C13.0773 5.93541 11.9202 6.40386 11.055 7.24167ZM13.64 9.845C14.0067 9.47833 14.575 9.47833 14.9417 9.845C15.3083 10.2117 15.3083 10.78 14.9417 11.1467L9.11167 16.9767C10.1416 18.0079 10.7202 19.4058 10.7202 20.8633C10.7202 22.3208 10.1416 23.7188 9.11167 24.75L11.6967 27.335C12.9576 26.0742 13.8234 24.4731 14.1881 22.7277C14.5528 20.9824 14.4006 19.1685 13.75 17.5083L25.3 5.95833C25.6667 5.59167 26.235 5.59167 26.5833 5.95833C26.9317 6.325 26.9683 6.89333 26.5833 7.26L18.1683 15.6933L20.7533 18.2783L31.7717 7.26C32.1383 6.89333 32.7067 6.89333 33.0733 7.26C33.44 7.62667 33.44 8.195 33.0733 8.56167L22.055 19.58L24.64 22.165L33.715 13.09C34.0817 12.7233 34.65 12.7233 35.0167 13.09C35.3833 13.4567 35.3833 14.025 35.0167 14.3917L24.64 24.75L27.225 27.3533L33.715 20.8633C34.0817 20.4967 34.65 20.4967 35.0167 20.8633C35.3833 21.23 35.3833 21.7983 35.0167 22.165L24.0167 33.1833C19.36 37.84 11.825 37.84 7.16833 33.1833C2.51167 28.5267 2.51167 20.9917 7.16833 16.335L13.64 9.845ZM40.3333 29.3333C40.3333 35.4017 35.4017 40.3333 29.3333 40.3333V37.5833C33.9167 37.5833 37.5833 33.9167 37.5833 29.3333H40.3333ZM0 11C0 4.93167 4.93167 0 11 0V2.75C6.41667 2.75 2.75 6.41667 2.75 11H0Z" fill="white"/>
</svg>
