<svg width="32" height="33" viewBox="0 0 32 33" fill="none" xmlns="http://www.w3.org/2000/svg">
<path d="M30.875 21.7983L21.2713 3.74C20.0038 1.35667 18.0863 0 15.9738 0C13.8613 0 11.9438 1.35667 10.6763 3.72167L1.0725 21.7983C0.3575 23.1367 0 24.53 0 25.85C0 26.895 0.2275 27.9217 0.6825 28.82C1.7225 30.8733 3.7375 32.065 6.22375 32.065H25.7238C28.21 32.065 30.225 30.8733 31.265 28.82C31.72 27.9217 31.9475 26.95 31.9475 25.9233C31.9638 24.5667 31.6063 23.155 30.875 21.7983ZM15.9738 9.05667C17.355 9.05667 18.4925 10.34 18.4925 11.8983C18.4925 13.4567 17.3713 14.74 15.9738 14.74C14.5925 14.74 13.455 13.4567 13.455 11.8983C13.455 10.3217 14.5763 9.05667 15.9738 9.05667ZM18.72 24.5667C18.6713 24.64 17.42 26.2533 15.3563 26.2533H15.1125C14.2838 26.1983 13.6013 25.795 13.195 25.0983C12.6913 24.2367 12.61 23.0633 13 21.7617L13.6663 19.525C14.04 18.2783 13.6825 18.0767 13.4875 17.9667L13.26 17.93C12.8538 17.93 12.285 18.205 12.1063 18.315C11.9438 18.4067 11.7325 18.37 11.6025 18.1867C11.4888 18.0033 11.4888 17.765 11.6188 17.6C11.6675 17.5267 13.0325 15.785 15.2263 15.9317C16.055 15.9867 16.7375 16.39 17.1438 17.0867C17.6638 17.9483 17.7288 19.1217 17.3388 20.4417L16.6725 22.6783C16.2988 23.925 16.6563 24.1267 16.8513 24.2367L17.0788 24.2733C17.485 24.2733 18.0538 23.9983 18.2325 23.9067C18.4113 23.7967 18.6063 23.8517 18.7363 24.035C18.85 24.1633 18.85 24.4017 18.72 24.5667Z" fill="white"/>
</svg>
