<svg width="37" height="42" viewBox="0 0 37 42" fill="none" xmlns="http://www.w3.org/2000/svg">
<path d="M36.5625 38.8774C36.5625 38.5853 36.4595 38.3219 36.2938 38.1267C36.4601 37.884 36.5625 37.5815 36.5625 37.2508C36.5625 36.8673 36.4275 36.4995 36.1872 36.2282C35.9469 35.957 35.6209 35.8045 35.281 35.8043C35.1353 35.8043 34.997 35.8373 34.8672 35.8882C34.8069 35.7394 34.7172 35.6081 34.6049 35.5044C34.4927 35.4008 34.361 35.3275 34.2197 35.2901C34.0785 35.2527 33.9316 35.2523 33.7902 35.2889C33.6489 35.3255 33.5168 35.3981 33.4041 35.5011C33.4358 35.3426 33.4355 35.1781 33.4033 35.0198C33.371 34.8614 33.3077 34.7132 33.2179 34.5862C33.1281 34.4591 33.0142 34.3565 32.8845 34.2858C32.7548 34.2151 32.6127 34.1781 32.4687 34.1777C31.9958 34.1777 31.604 34.5648 31.5236 35.0721C31.4096 34.962 31.2647 34.9011 31.1147 34.9002C30.7613 34.9002 30.4742 35.2241 30.4742 35.6249V26.7163H33.1335L29.0294 21.56H22.9503V8.46656H26.6687L21.9765 5.43881V1.56475H22.67V0H17.82V1.56475H18.5134V3.20306L13.5501 0L0.430828 8.46656H4.14923V21.56L0 26.7163H2.65931V34.4823C2.48097 34.2871 2.24233 34.1779 1.99387 34.1777C1.521 34.1777 1.12917 34.5648 1.04873 35.0721C0.934767 34.962 0.789877 34.9011 0.639844 34.9002C0.287016 34.9002 0 35.2234 0 35.6242V41.25H36.5625V39.9609H35.6021C36.1323 39.9609 36.5625 39.4749 36.5625 38.8774ZM1.12125 36.3467C1.29858 36.3467 1.44117 36.5076 1.44117 36.7077C1.44117 36.9077 1.29858 36.6472 1.12125 36.6472C0.943922 36.6472 0.801328 36.9077 0.801328 36.7077C0.801328 36.5076 0.943922 36.3467 1.12125 36.3467ZM0.573422 37.7946C0.396703 37.7946 0.2535 37.9947 0.2535 37.7946C0.2571 37.7015 0.292412 37.6136 0.352072 37.5492C0.411732 37.4847 0.491135 37.4488 0.573727 37.4488C0.656318 37.4488 0.735721 37.4847 0.795381 37.5492C0.855041 37.6136 0.890353 37.7015 0.893953 37.7946C0.894562 37.9947 0.75075 37.7946 0.573422 37.7946ZM1.67334 38.8774C1.3193 38.8774 1.03228 39.435 1.03228 39.0349C1.03228 38.8431 1.09982 38.6591 1.22004 38.5235C1.34027 38.3878 1.50332 38.3116 1.67334 38.3116C1.84336 38.3116 2.00642 38.3878 2.12664 38.5235C2.24687 38.6591 2.31441 38.8431 2.31441 39.0349C2.31441 39.4343 2.02739 38.8774 1.67334 38.8774ZM2.08041 35.8531C1.84092 35.8531 1.64653 36.256 1.64653 35.9851C1.64434 35.9193 1.65395 35.8536 1.67479 35.792C1.69562 35.7304 1.72725 35.6742 1.76778 35.6267C1.80832 35.5792 1.85692 35.5415 1.91069 35.5157C1.96446 35.4899 2.02228 35.4766 2.08071 35.4766C2.13914 35.4766 2.19696 35.4899 2.25073 35.5157C2.3045 35.5415 2.3531 35.5792 2.39364 35.6267C2.43417 35.6742 2.4658 35.7304 2.48663 35.792C2.50747 35.8536 2.51708 35.9193 2.51489 35.9851C2.51489 36.256 2.3205 35.8531 2.08041 35.8531ZM5.36798 8.46656H21.7327V21.56H5.36798V8.46656ZM3.68245 38.3838C3.44236 38.3838 3.24858 38.7867 3.24858 38.5158C3.24858 38.386 3.29429 38.2615 3.37566 38.1697C3.45702 38.0779 3.56738 38.0263 3.68245 38.0263C3.79752 38.0263 3.90788 38.0779 3.98925 38.1697C4.07062 38.2615 4.11633 38.386 4.11633 38.5158C4.11633 38.7867 3.92255 38.3838 3.68245 38.3838ZM4.07063 37.1642C4.07063 37.0688 4.08729 36.9743 4.11965 36.8861C4.15202 36.7979 4.19947 36.7178 4.25928 36.6503C4.31909 36.5829 4.3901 36.5293 4.46824 36.4928C4.54639 36.4563 4.63015 36.4375 4.71473 36.4375C4.79932 36.4375 4.88308 36.4563 4.96122 36.4928C5.03937 36.5293 5.11038 36.5829 5.17019 36.6503C5.23 36.7178 5.27744 36.7979 5.30981 36.8861C5.34218 36.9743 5.35884 37.0688 5.35884 37.1642C5.35884 37.5657 5.07 36.9339 4.71413 36.9339C4.35886 36.9339 4.07063 37.5657 4.07063 37.1642ZM5.05903 38.8795C4.8817 38.8795 4.73911 39.0789 4.73911 38.8795C4.73911 38.6794 4.8817 38.5186 5.05903 38.5186C5.23636 38.5186 5.37895 38.6794 5.37895 38.8795C5.37895 39.0789 5.23636 38.8795 5.05903 38.8795ZM14.2411 35.7603C14.1389 35.7603 14.0408 35.7145 13.9686 35.6329C13.8963 35.5514 13.8557 35.4408 13.8557 35.3255C13.8557 35.2101 13.8963 35.0995 13.9686 35.018C14.0408 34.9364 14.1389 34.8906 14.2411 34.8906C14.3433 34.8906 14.4414 34.9364 14.5136 35.018C14.5859 35.0995 14.6265 35.2101 14.6265 35.3255C14.6265 35.4408 14.5859 35.5514 14.5136 35.6329C14.4414 35.7145 14.3433 35.7603 14.2411 35.7603ZM15.1387 39.875V31.8478H15.653V30.69H9.49345V31.8484H10.0065V39.875H5.50144C5.64509 39.8069 5.77185 39.7003 5.87072 39.5644C5.96959 39.4285 6.03758 39.2674 6.0688 39.0952C6.10002 38.9229 6.09352 38.7447 6.04987 38.5759C6.00622 38.4072 5.92674 38.253 5.81831 38.1267C5.98467 37.8833 6.08705 37.5815 6.08705 37.2508C6.08705 36.8673 5.95205 36.4995 5.71174 36.2282C5.47142 35.957 5.14547 35.8045 4.80553 35.8043C4.65989 35.8043 4.52156 35.8373 4.39177 35.8882C4.28656 35.6419 4.1029 35.4494 3.87745 35.3492V26.7163H29.2555V39.875H15.1387ZM31.5967 36.3467C31.774 36.3467 31.9166 36.5076 31.9166 36.7077C31.9166 36.9077 31.774 36.6472 31.5967 36.6472C31.4194 36.6472 31.2768 36.9077 31.2768 36.7077C31.2768 36.5076 31.4194 36.3467 31.5967 36.3467ZM31.0489 37.7946C30.8722 37.7946 30.729 37.9947 30.729 37.7946C30.7326 37.7015 30.7679 37.6136 30.8275 37.5492C30.8872 37.4847 30.9666 37.4488 31.0492 37.4488C31.1318 37.4488 31.2112 37.4847 31.2708 37.5492C31.3305 37.6136 31.3658 37.7015 31.3694 37.7946C31.37 37.9947 31.2262 37.7946 31.0489 37.7946ZM32.1482 38.8774C31.7948 38.8774 31.5077 39.435 31.5077 39.0349C31.5077 38.8431 31.5753 38.6591 31.6955 38.5235C31.8157 38.3878 31.9788 38.3116 32.1488 38.3116C32.3188 38.3116 32.4819 38.3878 32.6021 38.5235C32.7223 38.6591 32.7899 38.8431 32.7899 39.0349C32.7899 39.4343 32.5028 38.8774 32.1482 38.8774ZM32.5559 35.8531C32.3164 35.8531 32.122 36.256 32.122 35.9851C32.1198 35.9193 32.1294 35.8536 32.1502 35.792C32.1711 35.7304 32.2027 35.6742 32.2432 35.6267C32.2838 35.5792 32.3324 35.5415 32.3861 35.5157C32.4399 35.4899 32.4977 35.4766 32.5562 35.4766C32.6146 35.4766 32.6724 35.4899 32.7262 35.5157C32.78 35.5415 32.8286 35.5792 32.8691 35.6267C32.9096 35.6742 32.9413 35.7304 32.9621 35.792C32.9829 35.8536 32.9925 35.9193 32.9903 35.9851C32.9903 36.256 32.7953 35.8531 32.5559 35.8531ZM34.1573 38.3838C33.9178 38.3838 33.724 38.7867 33.724 38.5158C33.724 38.386 33.7697 38.2615 33.8511 38.1697C33.9325 38.0779 34.0428 38.0263 34.1579 38.0263C34.273 38.0263 34.3833 38.0779 34.4647 38.1697C34.5461 38.2615 34.5918 38.386 34.5918 38.5158C34.5918 38.7867 34.3974 38.3838 34.1573 38.3838ZM34.5455 37.1642C34.5455 36.9714 34.6134 36.7864 34.7342 36.6501C34.8551 36.5138 35.019 36.4372 35.1899 36.4372C35.3608 36.4372 35.5247 36.5138 35.6456 36.6501C35.7664 36.7864 35.8343 36.9714 35.8343 37.1642C35.8343 37.5657 35.5455 36.9339 35.1896 36.9339C34.8343 36.9339 34.5455 37.5657 34.5455 37.1642ZM35.5345 38.8795C35.3572 38.8795 35.2146 39.0789 35.2146 38.8795C35.2146 38.6794 35.3572 38.5186 35.5345 38.5186C35.7118 38.5186 35.8544 38.6794 35.8544 38.8795C35.8544 39.0789 35.7118 38.8795 35.5345 38.8795Z" fill="white"/>
</svg>
